<?xml version="1.0" encoding="UTF-8" standalone="no"?>
<!-- Created with Inkscape (http://www.inkscape.org/) -->

<svg
   xmlns:dc="http://purl.org/dc/elements/1.1/"
   xmlns:cc="http://creativecommons.org/ns#"
   xmlns:rdf="http://www.w3.org/1999/02/22-rdf-syntax-ns#"
   xmlns:svg="http://www.w3.org/2000/svg"
   xmlns="http://www.w3.org/2000/svg"
   xmlns:xlink="http://www.w3.org/1999/xlink"
   xmlns:sodipodi="http://sodipodi.sourceforge.net/DTD/sodipodi-0.dtd"
   xmlns:inkscape="http://www.inkscape.org/namespaces/inkscape"
   width="256"
   height="256"
   id="svg2"
   version="1.1"
   inkscape:version="0.48.5 r10040"
   sodipodi:docname="sprites-64x64.svg"
   inkscape:export-filename="/home/tinman/Downloads/sprites-64x64.png"
   inkscape:export-xdpi="90"
   inkscape:export-ydpi="90">
  <defs
     id="defs4">
    <linearGradient
       id="linearGradient4333">
      <stop
         style="stop-color:#00ff00;stop-opacity:1;"
         offset="0"
         id="stop4335" />
      <stop
         style="stop-color:#ffffff;stop-opacity:1;"
         offset="1"
         id="stop4337" />
    </linearGradient>
    <linearGradient
       id="linearGradient3787">
      <stop
         style="stop-color:#ffff00;stop-opacity:1;"
         offset="0"
         id="stop3789" />
      <stop
         style="stop-color:#ffffff;stop-opacity:1;"
         offset="1"
         id="stop3791" />
    </linearGradient>
    <linearGradient
       id="linearGradient3787-7">
      <stop
         style="stop-color:#ffff00;stop-opacity:1;"
         offset="0"
         id="stop3789-5" />
      <stop
         style="stop-color:#ffffff;stop-opacity:1;"
         offset="1"
         id="stop3791-3" />
    </linearGradient>
    <linearGradient
       inkscape:collect="always"
       xlink:href="#linearGradient3787-7-7"
       id="linearGradient3793-6-2"
       x1="105.76646"
       y1="152.83844"
       x2="106.72097"
       y2="119.00354"
       gradientUnits="userSpaceOnUse" />
    <linearGradient
       id="linearGradient3787-7-7">
      <stop
         style="stop-color:#ffff00;stop-opacity:1;"
         offset="0"
         id="stop3789-5-0" />
      <stop
         style="stop-color:#ffffff;stop-opacity:1;"
         offset="1"
         id="stop3791-3-9" />
    </linearGradient>
    <linearGradient
       id="linearGradient3787-7-79">
      <stop
         style="stop-color:#ffff00;stop-opacity:1;"
         offset="0"
         id="stop3789-5-2" />
      <stop
         style="stop-color:#ffffff;stop-opacity:1;"
         offset="1"
         id="stop3791-3-0" />
    </linearGradient>
    <linearGradient
       id="linearGradient3787-9">
      <stop
         style="stop-color:#ffff00;stop-opacity:1;"
         offset="0"
         id="stop3789-7" />
      <stop
         style="stop-color:#ffffff;stop-opacity:1;"
         offset="1"
         id="stop3791-36" />
    </linearGradient>
    <linearGradient
       id="linearGradient3787-9-4">
      <stop
         style="stop-color:#ffff00;stop-opacity:1;"
         offset="0"
         id="stop3789-7-5" />
      <stop
         style="stop-color:#ffffff;stop-opacity:1;"
         offset="1"
         id="stop3791-36-0" />
    </linearGradient>
    <linearGradient
       inkscape:collect="always"
       xlink:href="#linearGradient3787-9"
       id="linearGradient4084"
       gradientUnits="userSpaceOnUse"
       x1="105.76646"
       y1="152.83844"
       x2="106.72097"
       y2="119.00354" />
    <linearGradient
       inkscape:collect="always"
       xlink:href="#linearGradient3787-9-4"
       id="linearGradient4086"
       gradientUnits="userSpaceOnUse"
       x1="105.76646"
       y1="152.83844"
       x2="106.72097"
       y2="119.00354" />
    <linearGradient
       inkscape:collect="always"
       xlink:href="#linearGradient3787-7"
       id="linearGradient4088"
       gradientUnits="userSpaceOnUse"
       x1="105.76646"
       y1="152.83844"
       x2="106.72097"
       y2="119.00354" />
    <linearGradient
       inkscape:collect="always"
       xlink:href="#linearGradient3787"
       id="linearGradient4119"
       gradientUnits="userSpaceOnUse"
       x1="105.76646"
       y1="152.83844"
       x2="106.72097"
       y2="119.00354" />
    <linearGradient
       id="linearGradient3787-0">
      <stop
         style="stop-color:#ffff00;stop-opacity:1;"
         offset="0"
         id="stop3789-6" />
      <stop
         style="stop-color:#ffffff;stop-opacity:1;"
         offset="1"
         id="stop3791-1" />
    </linearGradient>
    <linearGradient
       id="linearGradient3787-7-5">
      <stop
         style="stop-color:#ffff00;stop-opacity:1;"
         offset="0"
         id="stop3789-5-4" />
      <stop
         style="stop-color:#ffffff;stop-opacity:1;"
         offset="1"
         id="stop3791-3-7" />
    </linearGradient>
    <linearGradient
       id="linearGradient3787-7-7-5">
      <stop
         style="stop-color:#ffff00;stop-opacity:1;"
         offset="0"
         id="stop3789-5-0-6" />
      <stop
         style="stop-color:#ffffff;stop-opacity:1;"
         offset="1"
         id="stop3791-3-9-9" />
    </linearGradient>
    <linearGradient
       id="linearGradient3787-9-7">
      <stop
         style="stop-color:#ffff00;stop-opacity:1;"
         offset="0"
         id="stop3789-7-4" />
      <stop
         style="stop-color:#ffffff;stop-opacity:1;"
         offset="1"
         id="stop3791-36-5" />
    </linearGradient>
    <linearGradient
       id="linearGradient3787-9-4-5">
      <stop
         style="stop-color:#ffff00;stop-opacity:1;"
         offset="0"
         id="stop3789-7-5-4" />
      <stop
         style="stop-color:#ffffff;stop-opacity:1;"
         offset="1"
         id="stop3791-36-0-7" />
    </linearGradient>
    <linearGradient
       inkscape:collect="always"
       xlink:href="#linearGradient4333"
       id="linearGradient4339"
       x1="107.48803"
       y1="153.32178"
       x2="107.09338"
       y2="119.25027"
       gradientUnits="userSpaceOnUse" />
    <linearGradient
       inkscape:collect="always"
       xlink:href="#linearGradient4333"
       id="linearGradient4341"
       x1="106.69873"
       y1="152.83504"
       x2="107.09338"
       y2="118.76353"
       gradientUnits="userSpaceOnUse" />
    <linearGradient
       inkscape:collect="always"
       xlink:href="#linearGradient4333"
       id="linearGradient4343"
       x1="106.69873"
       y1="152.59167"
       x2="106.83028"
       y2="118.76353"
       gradientUnits="userSpaceOnUse" />
    <linearGradient
       inkscape:collect="always"
       xlink:href="#linearGradient4333"
       id="linearGradient4345"
       x1="106.69873"
       y1="152.59167"
       x2="107.09338"
       y2="118.76353"
       gradientUnits="userSpaceOnUse" />
    <linearGradient
       inkscape:collect="always"
       xlink:href="#linearGradient4333"
       id="linearGradient4347"
       x1="107.22493"
       y1="152.83504"
       x2="107.09338"
       y2="119.0069"
       gradientUnits="userSpaceOnUse" />
  </defs>
  <sodipodi:namedview
     id="base"
     pagecolor="#ffffff"
     bordercolor="#666666"
     borderopacity="1.0"
     inkscape:pageopacity="0.0"
     inkscape:pageshadow="2"
     inkscape:zoom="2.1796875"
     inkscape:cx="128"
     inkscape:cy="128"
     inkscape:document-units="px"
     inkscape:current-layer="layer1"
     showgrid="false"
     inkscape:window-width="1364"
     inkscape:window-height="715"
     inkscape:window-x="1"
     inkscape:window-y="30"
     inkscape:window-maximized="1" />
  <metadata
     id="metadata7">
    <rdf:RDF>
      <cc:Work
         rdf:about="">
        <dc:format>image/svg+xml</dc:format>
        <dc:type
           rdf:resource="http://purl.org/dc/dcmitype/StillImage" />
        <dc:title></dc:title>
      </cc:Work>
    </rdf:RDF>
  </metadata>
  <g
     inkscape:label="Layer 1"
     inkscape:groupmode="layer"
     id="layer1"
     transform="translate(0,-796.36218)">
    <g
       id="g4143">
      <path
         transform="matrix(1.7437499,0,0,1.8851351,-154.39999,636.36219)"
         d="m 125.24731,135.79929 a 18.351255,16.974911 0 1 1 -36.702508,0 18.351255,16.974911 0 1 1 36.702508,0 z"
         sodipodi:ry="16.974911"
         sodipodi:rx="18.351255"
         sodipodi:cy="135.79929"
         sodipodi:cx="106.89606"
         id="path3753"
         style="fill:url(#linearGradient4119);fill-opacity:1;stroke:none"
         sodipodi:type="arc" />
      <path
         transform="matrix(0.96077408,0,0,0.83052318,-40.117862,821.10984)"
         d="m 70.652332,76.157707 a 4.1290321,9.634409 0 1 1 -8.258064,0 4.1290321,9.634409 0 1 1 8.258064,0 z"
         sodipodi:ry="9.634409"
         sodipodi:rx="4.1290321"
         sodipodi:cy="76.157707"
         sodipodi:cx="66.5233"
         id="path3755"
         style="fill:#000000;fill-opacity:1;stroke:none"
         sodipodi:type="arc" />
      <path
         transform="matrix(0.96077408,0,0,0.83052318,-24.249594,821.10984)"
         d="m 70.652332,76.157707 a 4.1290321,9.634409 0 1 1 -8.258064,0 4.1290321,9.634409 0 1 1 8.258064,0 z"
         sodipodi:ry="9.634409"
         sodipodi:rx="4.1290321"
         sodipodi:cy="76.157707"
         sodipodi:cx="66.5233"
         id="path3755-3"
         style="fill:#000000;fill-opacity:1;stroke:none"
         sodipodi:type="arc" />
      <path
         inkscape:connector-curvature="0"
         id="path3779"
         d="m 8.1975977,892.3622 c 0,13.25745 10.6566993,24.0048 23.8024023,24.0048 13.1457,0 23.802403,-10.74735 23.802403,-24.0048 l -3.967067,0 c 0,11.04791 -8.880588,20.004 -19.835336,20.004 -10.954753,0 -19.835335,-8.95609 -19.835335,-20.004 l -3.9670673,0 z"
         style="fill:#000000;fill-opacity:1;stroke:none" />
      <path
         transform="matrix(1.7437499,0,0,1.8851351,-154.39999,700.36218)"
         d="m 125.24731,135.79929 a 18.351255,16.974911 0 1 1 -36.702508,0 18.351255,16.974911 0 1 1 36.702508,0 z"
         sodipodi:ry="16.974911"
         sodipodi:rx="18.351255"
         sodipodi:cy="135.79929"
         sodipodi:cx="106.89606"
         id="path3753-6"
         style="fill:url(#linearGradient4088);fill-opacity:1;stroke:none"
         sodipodi:type="arc" />
      <path
         transform="matrix(0.48437503,0,0,0.83052318,-22.024224,885.11001)"
         d="m 70.652332,76.157707 a 4.1290321,9.634409 0 1 1 -8.258064,0 4.1290321,9.634409 0 1 1 8.258064,0 z"
         sodipodi:ry="9.634409"
         sodipodi:rx="4.1290321"
         sodipodi:cy="76.157707"
         sodipodi:cx="66.5233"
         id="path3755-2"
         style="fill:#000000;fill-opacity:1;stroke:none"
         sodipodi:type="arc" />
      <path
         transform="matrix(0.48437503,0,0,0.83052318,-14.024224,885.11001)"
         d="m 70.652332,76.157707 a 4.1290321,9.634409 0 1 1 -8.258064,0 4.1290321,9.634409 0 1 1 8.258064,0 z"
         sodipodi:ry="9.634409"
         sodipodi:rx="4.1290321"
         sodipodi:cy="76.157707"
         sodipodi:cx="66.5233"
         id="path3755-3-9"
         style="fill:#000000;fill-opacity:1;stroke:none"
         sodipodi:type="arc" />
      <path
         inkscape:connector-curvature="0"
         id="path3779-1"
         d="m 4.198001,956.36242 c 0,13.2574 5.372583,24.0048 12.000001,24.0048 6.627415,0 11.999999,-10.7474 11.999999,-24.0048 l -1.999997,0 c 0,11.0479 -4.477156,20.004 -10.000002,20.004 -5.522848,0 -10,-8.9561 -10,-20.004 l -2.000001,0 z"
         style="fill:#000000;fill-opacity:1;stroke:none" />
      <path
         transform="matrix(-1.7437499,0,0,1.8851351,282.39999,700.36218)"
         d="m 125.24731,135.79929 a 18.351255,16.974911 0 1 1 -36.702508,0 18.351255,16.974911 0 1 1 36.702508,0 z"
         sodipodi:ry="16.974911"
         sodipodi:rx="18.351255"
         sodipodi:cy="135.79929"
         sodipodi:cx="106.89606"
         id="path3753-6-6"
         style="fill:url(#linearGradient3793-6-2);fill-opacity:1;stroke:none"
         sodipodi:type="arc" />
      <path
         transform="matrix(-0.48437503,0,0,0.83052318,150.02423,885.11001)"
         d="m 70.652332,76.157707 a 4.1290321,9.634409 0 1 1 -8.258064,0 4.1290321,9.634409 0 1 1 8.258064,0 z"
         sodipodi:ry="9.634409"
         sodipodi:rx="4.1290321"
         sodipodi:cy="76.157707"
         sodipodi:cx="66.5233"
         id="path3755-2-2"
         style="fill:#000000;fill-opacity:1;stroke:none"
         sodipodi:type="arc" />
      <path
         transform="matrix(-0.48437503,0,0,0.83052318,142.02423,885.11001)"
         d="m 70.652332,76.157707 a 4.1290321,9.634409 0 1 1 -8.258064,0 4.1290321,9.634409 0 1 1 8.258064,0 z"
         sodipodi:ry="9.634409"
         sodipodi:rx="4.1290321"
         sodipodi:cy="76.157707"
         sodipodi:cx="66.5233"
         id="path3755-3-9-6"
         style="fill:#000000;fill-opacity:1;stroke:none"
         sodipodi:type="arc" />
      <path
         inkscape:connector-curvature="0"
         id="path3779-1-1"
         d="m 123.802,956.36242 c 0,13.2574 -5.37258,24.0048 -12,24.0048 -6.62742,0 -12,-10.7474 -12,-24.0048 l 2,0 c 0,11.0479 4.47715,20.004 10,20.004 5.52285,0 10,-8.9561 10,-20.004 l 2,0 z"
         style="fill:#000000;fill-opacity:1;stroke:none" />
      <path
         transform="matrix(1.7437499,0,0,1.8851351,-90.399989,764.36218)"
         d="m 125.24731,135.79929 a 18.351255,16.974911 0 1 1 -36.702508,0 18.351255,16.974911 0 1 1 36.702508,0 z"
         sodipodi:ry="16.974911"
         sodipodi:rx="18.351255"
         sodipodi:cy="135.79929"
         sodipodi:cx="106.89606"
         id="path3753-9"
         style="fill:url(#linearGradient4084);fill-opacity:1;stroke:none"
         sodipodi:type="arc" />
      <path
         transform="matrix(0.96077802,0,0,0.41517836,23.881743,1000.7478)"
         d="m 70.652332,76.157707 a 4.1290321,9.634409 0 1 1 -8.258064,0 4.1290321,9.634409 0 1 1 8.258064,0 z"
         sodipodi:ry="9.634409"
         sodipodi:rx="4.1290321"
         sodipodi:cy="76.157707"
         sodipodi:cx="66.5233"
         id="path3755-31"
         style="fill:#000000;fill-opacity:1;stroke:none"
         sodipodi:type="arc" />
      <path
         transform="matrix(0.96077802,0,0,0.41517836,39.750077,1000.7478)"
         d="m 70.652332,76.157707 a 4.1290321,9.634409 0 1 1 -8.258064,0 4.1290321,9.634409 0 1 1 8.258064,0 z"
         sodipodi:ry="9.634409"
         sodipodi:rx="4.1290321"
         sodipodi:cy="76.157707"
         sodipodi:cx="66.5233"
         id="path3755-3-94"
         style="fill:#000000;fill-opacity:1;stroke:none"
         sodipodi:type="arc" />
      <path
         inkscape:connector-curvature="0"
         id="path3779-7"
         d="m 72.197401,1036.3668 c 0,6.6274 10.656743,12 23.802501,12 13.145748,0 23.802498,-5.3726 23.802498,-12 l -3.96708,0 c 0,5.5229 -8.88063,10 -19.835418,10 -10.954799,0 -19.835417,-4.4771 -19.835417,-10 l -3.967084,0 z"
         style="fill:#000000;fill-opacity:1;stroke:none" />
      <path
         transform="matrix(1.7437499,0,0,1.8851351,-154.39999,764.36218)"
         d="m 125.24731,135.79929 a 18.351255,16.974911 0 1 1 -36.702508,0 18.351255,16.974911 0 1 1 36.702508,0 z"
         sodipodi:ry="16.974911"
         sodipodi:rx="18.351255"
         sodipodi:cy="135.79929"
         sodipodi:cx="106.89606"
         id="path3753-9-6"
         style="fill:url(#linearGradient4086);fill-opacity:1;stroke:none"
         sodipodi:type="arc" />
      <path
         transform="matrix(0.96077802,0,0,0.41517836,-40.118257,968.74777)"
         d="m 70.652332,76.157707 a 4.1290321,9.634409 0 1 1 -8.258064,0 4.1290321,9.634409 0 1 1 8.258064,0 z"
         sodipodi:ry="9.634409"
         sodipodi:rx="4.1290321"
         sodipodi:cy="76.157707"
         sodipodi:cx="66.5233"
         id="path3755-31-0"
         style="fill:#000000;fill-opacity:1;stroke:none"
         sodipodi:type="arc" />
      <path
         transform="matrix(0.96077802,0,0,0.41517836,-24.249923,968.74777)"
         d="m 70.652332,76.157707 a 4.1290321,9.634409 0 1 1 -8.258064,0 4.1290321,9.634409 0 1 1 8.258064,0 z"
         sodipodi:ry="9.634409"
         sodipodi:rx="4.1290321"
         sodipodi:cy="76.157707"
         sodipodi:cx="66.5233"
         id="path3755-3-94-6"
         style="fill:#000000;fill-opacity:1;stroke:none"
         sodipodi:type="arc" />
      <path
         inkscape:connector-curvature="0"
         id="path3779-7-3"
         d="m 8.1974015,1004.3668 c 0,6.6274 10.6567425,12 23.8025005,12 13.145753,0 23.8025,-5.3726 23.8025,-12 l -3.967084,0 c 0,5.5229 -8.880623,10 -19.835416,10 -10.954799,0 -19.835417,-4.4771 -19.835417,-10 l -3.9670835,0 z"
         style="fill:#000000;fill-opacity:1;stroke:none" />
    </g>
    <path
       sodipodi:type="arc"
       style="fill:url(#linearGradient4347);fill-opacity:1;stroke:none"
       id="path3753-4"
       sodipodi:cx="106.89606"
       sodipodi:cy="135.79929"
       sodipodi:rx="18.351255"
       sodipodi:ry="16.974911"
       d="m 125.24731,135.79929 a 18.351255,16.974911 0 1 1 -36.702508,0 18.351255,16.974911 0 1 1 36.702508,0 z"
       transform="matrix(1.7437499,0,0,1.8851351,-26.39999,636.36219)" />
    <path
       sodipodi:type="arc"
       style="fill:#000000;fill-opacity:1;stroke:none"
       id="path3755-30"
       sodipodi:cx="66.5233"
       sodipodi:cy="76.157707"
       sodipodi:rx="4.1290321"
       sodipodi:ry="9.634409"
       d="m 70.652332,76.157707 a 4.1290321,9.634409 0 1 1 -8.258064,0 4.1290321,9.634409 0 1 1 8.258064,0 z"
       transform="matrix(0.96077408,0,0,0.83052318,87.882138,821.10984)" />
    <path
       sodipodi:type="arc"
       style="fill:#000000;fill-opacity:1;stroke:none"
       id="path3755-3-7"
       sodipodi:cx="66.5233"
       sodipodi:cy="76.157707"
       sodipodi:rx="4.1290321"
       sodipodi:ry="9.634409"
       d="m 70.652332,76.157707 a 4.1290321,9.634409 0 1 1 -8.258064,0 4.1290321,9.634409 0 1 1 8.258064,0 z"
       transform="matrix(0.96077408,0,0,0.83052318,103.75041,821.10984)" />
    <path
       style="fill:#000000;fill-opacity:1;stroke:none"
       d="m 136.1976,892.3622 c 0,13.25745 10.6567,24.0048 23.8024,24.0048 13.1457,0 23.8024,-10.74735 23.8024,-24.0048 l -3.96706,0 c 0,11.04791 -8.88059,20.004 -19.83534,20.004 -10.95475,0 -19.83534,-8.95609 -19.83534,-20.004 l -3.96706,0 z"
       id="path3779-8"
       inkscape:connector-curvature="0" />
    <path
       sodipodi:type="arc"
       style="fill:url(#linearGradient4345);fill-opacity:1;stroke:none"
       id="path3753-6-68"
       sodipodi:cx="106.89606"
       sodipodi:cy="135.79929"
       sodipodi:rx="18.351255"
       sodipodi:ry="16.974911"
       d="m 125.24731,135.79929 a 18.351255,16.974911 0 1 1 -36.702508,0 18.351255,16.974911 0 1 1 36.702508,0 z"
       transform="matrix(1.7437499,0,0,1.8851351,-26.39999,700.36218)" />
    <path
       sodipodi:type="arc"
       style="fill:#000000;fill-opacity:1;stroke:none"
       id="path3755-2-8"
       sodipodi:cx="66.5233"
       sodipodi:cy="76.157707"
       sodipodi:rx="4.1290321"
       sodipodi:ry="9.634409"
       d="m 70.652332,76.157707 a 4.1290321,9.634409 0 1 1 -8.258064,0 4.1290321,9.634409 0 1 1 8.258064,0 z"
       transform="matrix(0.48437503,0,0,0.83052318,105.97578,885.11001)" />
    <path
       sodipodi:type="arc"
       style="fill:#000000;fill-opacity:1;stroke:none"
       id="path3755-3-9-4"
       sodipodi:cx="66.5233"
       sodipodi:cy="76.157707"
       sodipodi:rx="4.1290321"
       sodipodi:ry="9.634409"
       d="m 70.652332,76.157707 a 4.1290321,9.634409 0 1 1 -8.258064,0 4.1290321,9.634409 0 1 1 8.258064,0 z"
       transform="matrix(0.48437503,0,0,0.83052318,113.97578,885.11001)" />
    <path
       style="fill:#000000;fill-opacity:1;stroke:none"
       d="m 132.198,956.36242 c 0,13.2574 5.37258,24.0048 12,24.0048 6.62742,0 12,-10.7474 12,-24.0048 l -2,0 c 0,11.0479 -4.47715,20.004 -10,20.004 -5.52285,0 -10,-8.9561 -10,-20.004 l -2,0 z"
       id="path3779-1-3"
       inkscape:connector-curvature="0" />
    <path
       sodipodi:type="arc"
       style="fill:url(#linearGradient4343);fill-opacity:1;stroke:none"
       id="path3753-6-6-1"
       sodipodi:cx="106.89606"
       sodipodi:cy="135.79929"
       sodipodi:rx="18.351255"
       sodipodi:ry="16.974911"
       d="m 125.24731,135.79929 a 18.351255,16.974911 0 1 1 -36.702508,0 18.351255,16.974911 0 1 1 36.702508,0 z"
       transform="matrix(-1.7437499,0,0,1.8851351,410.39999,700.36218)" />
    <path
       sodipodi:type="arc"
       style="fill:#000000;fill-opacity:1;stroke:none"
       id="path3755-2-2-4"
       sodipodi:cx="66.5233"
       sodipodi:cy="76.157707"
       sodipodi:rx="4.1290321"
       sodipodi:ry="9.634409"
       d="m 70.652332,76.157707 a 4.1290321,9.634409 0 1 1 -8.258064,0 4.1290321,9.634409 0 1 1 8.258064,0 z"
       transform="matrix(-0.48437503,0,0,0.83052318,278.02423,885.11001)" />
    <path
       sodipodi:type="arc"
       style="fill:#000000;fill-opacity:1;stroke:none"
       id="path3755-3-9-6-9"
       sodipodi:cx="66.5233"
       sodipodi:cy="76.157707"
       sodipodi:rx="4.1290321"
       sodipodi:ry="9.634409"
       d="m 70.652332,76.157707 a 4.1290321,9.634409 0 1 1 -8.258064,0 4.1290321,9.634409 0 1 1 8.258064,0 z"
       transform="matrix(-0.48437503,0,0,0.83052318,270.02423,885.11001)" />
    <path
       style="fill:#000000;fill-opacity:1;stroke:none"
       d="m 251.802,956.36242 c 0,13.2574 -5.37258,24.0048 -12,24.0048 -6.62742,0 -12,-10.7474 -12,-24.0048 l 2,0 c 0,11.0479 4.47715,20.004 10,20.004 5.52285,0 10,-8.9561 10,-20.004 l 2,0 z"
       id="path3779-1-1-2"
       inkscape:connector-curvature="0" />
    <path
       sodipodi:type="arc"
       style="fill:url(#linearGradient4339);fill-opacity:1;stroke:none"
       id="path3753-9-0"
       sodipodi:cx="106.89606"
       sodipodi:cy="135.79929"
       sodipodi:rx="18.351255"
       sodipodi:ry="16.974911"
       d="m 125.24731,135.79929 a 18.351255,16.974911 0 1 1 -36.702508,0 18.351255,16.974911 0 1 1 36.702508,0 z"
       transform="matrix(1.7437499,0,0,1.8851351,37.600011,764.36218)" />
    <path
       sodipodi:type="arc"
       style="fill:#000000;fill-opacity:1;stroke:none"
       id="path3755-31-6"
       sodipodi:cx="66.5233"
       sodipodi:cy="76.157707"
       sodipodi:rx="4.1290321"
       sodipodi:ry="9.634409"
       d="m 70.652332,76.157707 a 4.1290321,9.634409 0 1 1 -8.258064,0 4.1290321,9.634409 0 1 1 8.258064,0 z"
       transform="matrix(0.96077802,0,0,0.41517836,151.88174,1000.7478)" />
    <path
       sodipodi:type="arc"
       style="fill:#000000;fill-opacity:1;stroke:none"
       id="path3755-3-94-8"
       sodipodi:cx="66.5233"
       sodipodi:cy="76.157707"
       sodipodi:rx="4.1290321"
       sodipodi:ry="9.634409"
       d="m 70.652332,76.157707 a 4.1290321,9.634409 0 1 1 -8.258064,0 4.1290321,9.634409 0 1 1 8.258064,0 z"
       transform="matrix(0.96077802,0,0,0.41517836,167.75008,1000.7478)" />
    <path
       style="fill:#000000;fill-opacity:1;stroke:none"
       d="m 200.1974,1036.3668 c 0,6.6274 10.65674,12 23.8025,12 13.14575,0 23.8025,-5.3726 23.8025,-12 l -3.96708,0 c 0,5.5229 -8.88063,10 -19.83542,10 -10.9548,0 -19.83542,-4.4771 -19.83542,-10 l -3.96708,0 z"
       id="path3779-7-9"
       inkscape:connector-curvature="0" />
    <path
       sodipodi:type="arc"
       style="fill:url(#linearGradient4341);fill-opacity:1;stroke:none"
       id="path3753-9-6-2"
       sodipodi:cx="106.89606"
       sodipodi:cy="135.79929"
       sodipodi:rx="18.351255"
       sodipodi:ry="16.974911"
       d="m 125.24731,135.79929 a 18.351255,16.974911 0 1 1 -36.702508,0 18.351255,16.974911 0 1 1 36.702508,0 z"
       transform="matrix(1.7437499,0,0,1.8851351,-26.39999,764.36218)" />
    <path
       sodipodi:type="arc"
       style="fill:#000000;fill-opacity:1;stroke:none"
       id="path3755-31-0-6"
       sodipodi:cx="66.5233"
       sodipodi:cy="76.157707"
       sodipodi:rx="4.1290321"
       sodipodi:ry="9.634409"
       d="m 70.652332,76.157707 a 4.1290321,9.634409 0 1 1 -8.258064,0 4.1290321,9.634409 0 1 1 8.258064,0 z"
       transform="matrix(0.96077802,0,0,0.41517836,87.881743,968.74777)" />
    <path
       sodipodi:type="arc"
       style="fill:#000000;fill-opacity:1;stroke:none"
       id="path3755-3-94-6-6"
       sodipodi:cx="66.5233"
       sodipodi:cy="76.157707"
       sodipodi:rx="4.1290321"
       sodipodi:ry="9.634409"
       d="m 70.652332,76.157707 a 4.1290321,9.634409 0 1 1 -8.258064,0 4.1290321,9.634409 0 1 1 8.258064,0 z"
       transform="matrix(0.96077802,0,0,0.41517836,103.75008,968.74777)" />
    <path
       style="fill:#000000;fill-opacity:1;stroke:none"
       d="m 136.1974,1004.3668 c 0,6.6274 10.65674,12 23.8025,12 13.14575,0 23.8025,-5.3726 23.8025,-12 l -3.96708,0 c 0,5.5229 -8.88062,10 -19.83542,10 -10.9548,0 -19.83541,-4.4771 -19.83541,-10 l -3.96709,0 z"
       id="path3779-7-3-4"
       inkscape:connector-curvature="0" />
    <path
       sodipodi:type="star"
       style="fill:#ff0000;fill-opacity:1;stroke:none"
       id="path4349"
       sodipodi:sides="5"
       sodipodi:cx="46.336918"
       sodipodi:cy="16.057348"
       sodipodi:r1="26.613274"
       sodipodi:r2="9.8440285"
       sodipodi:arg1="0.94453489"
       sodipodi:arg2="1.5728534"
       inkscape:flatsided="false"
       inkscape:rounded="0"
       inkscape:randomized="0"
       d="M 61.935484,37.620072 46.316668,25.901356 30.649771,37.555714 36.968453,19.080055 21.043162,7.7813453 40.567138,8.0814762 46.391664,-10.555869 52.139463,8.1052814 71.664509,7.8854783 55.692868,19.118573 z"
       transform="matrix(1.2642887,0,0,1.3284639,-26.604632,810.38527)"
       inkscape:transform-center-x="-0.021386698"
       inkscape:transform-center-y="-3.3547" />
    <path
       sodipodi:type="star"
       style="fill:#ffff00;fill-opacity:1;stroke:none"
       id="path4349-9"
       sodipodi:sides="5"
       sodipodi:cx="46.336918"
       sodipodi:cy="16.057348"
       sodipodi:r1="26.613274"
       sodipodi:r2="9.8440285"
       sodipodi:arg1="0.94453489"
       sodipodi:arg2="1.5728534"
       inkscape:flatsided="false"
       inkscape:rounded="0"
       inkscape:randomized="0"
       d="M 61.935484,37.620072 46.316668,25.901356 30.649771,37.555714 36.968453,19.080055 21.043162,7.7813453 40.567138,8.0814762 46.391664,-10.555869 52.139463,8.1052814 71.664509,7.8854783 55.692868,19.118573 z"
       transform="matrix(1.2642887,0,0,1.3284639,37.395369,810.38527)"
       inkscape:transform-center-x="-0.021386698"
       inkscape:transform-center-y="-3.3547" />
    <path
       sodipodi:type="star"
       style="fill:#0000ff;fill-opacity:1;stroke:none"
       id="path4349-5"
       sodipodi:sides="5"
       sodipodi:cx="46.336918"
       sodipodi:cy="16.057348"
       sodipodi:r1="26.613274"
       sodipodi:r2="9.8440285"
       sodipodi:arg1="0.94453489"
       sodipodi:arg2="1.5728534"
       inkscape:flatsided="false"
       inkscape:rounded="0"
       inkscape:randomized="0"
       d="M 61.935484,37.620072 46.316668,25.901356 30.649771,37.555714 36.968453,19.080055 21.043162,7.7813453 40.567138,8.0814762 46.391664,-10.555869 52.139463,8.1052814 71.664509,7.8854783 55.692868,19.118573 z"
       transform="matrix(1.2642887,0,0,1.3284639,37.395369,874.38527)"
       inkscape:transform-center-x="-0.021386698"
       inkscape:transform-center-y="-3.3547" />
    <path
       sodipodi:type="star"
       style="fill:#00ff00;fill-opacity:1;stroke:none"
       id="path4349-0"
       sodipodi:sides="5"
       sodipodi:cx="46.336918"
       sodipodi:cy="16.057348"
       sodipodi:r1="26.613274"
       sodipodi:r2="9.8440285"
       sodipodi:arg1="0.94453489"
       sodipodi:arg2="1.5728534"
       inkscape:flatsided="false"
       inkscape:rounded="0"
       inkscape:randomized="0"
       d="M 61.935484,37.620072 46.316668,25.901356 30.649771,37.555714 36.968453,19.080055 21.043162,7.7813453 40.567138,8.0814762 46.391664,-10.555869 52.139463,8.1052814 71.664509,7.8854783 55.692868,19.118573 z"
       transform="matrix(1.2642887,0,0,1.3284639,101.39537,810.38527)"
       inkscape:transform-center-x="-0.021386698"
       inkscape:transform-center-y="-3.3547" />
    <path
       sodipodi:type="star"
       style="fill:#00ffff;fill-opacity:1;stroke:none"
       id="path4349-4"
       sodipodi:sides="5"
       sodipodi:cx="46.336918"
       sodipodi:cy="16.057348"
       sodipodi:r1="26.613274"
       sodipodi:r2="9.8440285"
       sodipodi:arg1="0.94453489"
       sodipodi:arg2="1.5728534"
       inkscape:flatsided="false"
       inkscape:rounded="0"
       inkscape:randomized="0"
       d="M 61.935484,37.620072 46.316668,25.901356 30.649771,37.555714 36.968453,19.080055 21.043162,7.7813453 40.567138,8.0814762 46.391664,-10.555869 52.139463,8.1052814 71.664509,7.8854783 55.692868,19.118573 z"
       transform="matrix(1.2642887,0,0,1.3284639,165.39537,810.38527)"
       inkscape:transform-center-x="-0.021386698"
       inkscape:transform-center-y="-3.3547" />
    <path
       sodipodi:type="star"
       style="fill:#ff00ff;fill-opacity:1;stroke:none"
       id="path4349-8"
       sodipodi:sides="5"
       sodipodi:cx="46.336918"
       sodipodi:cy="16.057348"
       sodipodi:r1="26.613274"
       sodipodi:r2="9.8440285"
       sodipodi:arg1="0.94453489"
       sodipodi:arg2="1.5728534"
       inkscape:flatsided="false"
       inkscape:rounded="0"
       inkscape:randomized="0"
       d="M 61.935484,37.620072 46.316668,25.901356 30.649771,37.555714 36.968453,19.080055 21.043162,7.7813453 40.567138,8.0814762 46.391664,-10.555869 52.139463,8.1052814 71.664509,7.8854783 55.692868,19.118573 z"
       transform="matrix(1.2642887,0,0,1.3284639,165.39537,874.38527)"
       inkscape:transform-center-x="-0.021386698"
       inkscape:transform-center-y="-3.3547" />
  </g>
</svg>
